<svg xmlns="http://www.w3.org/2000/svg" viewBox="0 -0.5 32 32" shape-rendering="crispEdges">
<path stroke="#00ac03" d="M4 3h24M3 4h1M6 4h1M25 4h1M28 4h1M3 5h1M5 5h1M26 5h1M28 5h1M3 6h2M23 6h1M27 6h2M3 7h1M21 7h1M25 7h1M28 7h1M3 8h1M11 8h1M22 8h3M28 8h1M3 9h1M10 9h1M12 9h1M20 9h1M22 9h3M26 9h1M28 9h1M3 10h1M10 10h1M12 10h1M22 10h3M28 10h1M3 11h1M9 11h1M13 11h1M16 11h1M21 11h1M25 11h1M28 11h1M3 12h1M9 12h1M13 12h1M15 12h1M17 12h1M23 12h1M28 12h1M3 13h1M8 13h1M14 13h1M17 13h1M28 13h1M3 14h1M8 14h1M14 14h1M18 14h1M28 14h1M3 15h1M7 15h1M15 15h1M18 15h1M28 15h1M3 16h1M7 16h1M15 16h1M19 16h1M28 16h1M3 17h1M6 17h1M16 17h1M19 17h1M28 17h1M3 18h1M6 18h1M16 18h1M28 18h1M3 19h1M28 19h1M3 20h1M5 20h21M28 20h1M3 21h1M28 21h1M3 22h1M28 22h1M3 23h1M28 23h1M3 24h1M28 24h1M3 25h2M27 25h2M3 26h1M5 26h1M26 26h1M28 26h1M3 27h1M6 27h1M25 27h1M28 27h1M4 28h24" />
</svg>