<svg xmlns="http://www.w3.org/2000/svg" viewBox="0 -0.5 32 32" shape-rendering="crispEdges">
<metadata>Made with Pixels to Svg https://codepen.io/shshaw/pen/XbxvNj</metadata>
<path stroke="#00ac03" d="M4 3h24M3 4h1M6 4h1M25 4h1M28 4h1M3 5h1M5 5h1M26 5h1M28 5h1M3 6h2M27 6h2M3 7h1M14 7h4M28 7h1M3 8h1M12 8h8M28 8h1M3 9h1M10 9h12M28 9h1M3 10h1M9 10h14M28 10h1M3 11h1M9 11h14M28 11h1M3 12h1M8 12h16M28 12h1M3 13h1M7 13h5M14 13h4M20 13h5M28 13h1M3 14h1M7 14h5M14 14h4M20 14h5M28 14h1M3 15h1M7 15h18M28 15h1M3 16h1M7 16h18M28 16h1M3 17h1M7 17h18M28 17h1M3 18h1M7 18h5M13 18h6M20 18h5M28 18h1M3 19h1M8 19h5M14 19h4M19 19h5M28 19h1M3 20h1M9 20h5M18 20h5M28 20h1M3 21h1M9 21h14M28 21h1M3 22h1M10 22h12M28 22h1M3 23h1M12 23h8M28 23h1M3 24h1M14 24h4M28 24h1M3 25h2M27 25h2M3 26h1M5 26h1M26 26h1M28 26h1M3 27h1M6 27h1M25 27h1M28 27h1M4 28h24" />
</svg>